<?xml version="1.0" encoding="utf-8"?>
<svg xmlns="http://www.w3.org/2000/svg" xmlns:xlink="http://www.w3.org/1999/xlink" >
    <symbol viewBox="0 0 20 22" id="bell"> 
        <path d="M11.73 20C11.5542 20.3031 11.3018 20.5547 10.9982 20.7295C10.6946 20.9044 10.3504 20.9965 10 20.9965C9.64962 20.9965 9.30539 20.9044 9.00177 20.7295C8.69816 20.5547 8.44581 20.3031 8.27 20M16 7C16 5.4087 15.3679 3.88258 14.2426 2.75736C13.1174 1.63214 11.5913 1 10 1C8.4087 1 6.88258 1.63214 5.75736 2.75736C4.63214 3.88258 4 5.4087 4 7C4 14 1 16 1 16H19C19 16 16 14 16 7Z"   stroke-width="2" stroke-linecap="round" stroke-linejoin="round"/>
    </symbol>
    <symbol viewBox="0 0 20 20" id="search">  
        <path d="M19 19L14.65 14.65M17 9C17 13.4183 13.4183 17 9 17C4.58172 17 1 13.4183 1 9C1 4.58172 4.58172 1 9 1C13.4183 1 17 4.58172 17 9Z"  stroke-width="2" stroke-linecap="round" stroke-linejoin="round"/>
    </symbol>
    <symbol viewBox="0 0 19 19" id="user">   
        <path d="M15.6667 16.25V14.6667C15.6667 13.8268 15.333 13.0214 14.7392 12.4275C14.1453 11.8336 13.3399 11.5 12.5 11.5H6.16667C5.32681 11.5 4.52136 11.8336 3.92749 12.4275C3.33363 13.0214 3 13.8268 3 14.6667V16.25"  stroke-width="2" stroke-linecap="round" stroke-linejoin="round"/>
        <path d="M9.33268 8.33333C11.0816 8.33333 12.4993 6.91557 12.4993 5.16667C12.4993 3.41777 11.0816 2 9.33268 2C7.58378 2 6.16602 3.41777 6.16602 5.16667C6.16602 6.91557 7.58378 8.33333 9.33268 8.33333Z"  stroke-width="2" stroke-linecap="round" stroke-linejoin="round"/>
    </symbol>
    <symbol viewBox="0 0 19 19" id="smartphone">    
        <path d="M13.5 1H5.58333C4.70888 1 4 1.70888 4 2.58333V15.25C4 16.1245 4.70888 16.8333 5.58333 16.8333H13.5C14.3745 16.8333 15.0833 16.1245 15.0833 15.25V2.58333C15.0833 1.70888 14.3745 1 13.5 1Z"  stroke-width="2" stroke-linecap="round" stroke-linejoin="round"/>
        <path d="M9.54199 14.6667H9.54991"   stroke-width="2" stroke-linecap="round" stroke-linejoin="round"/> 
    </symbol>
    <symbol viewBox="0 0 19 19" id="mail"> 
        <path d="M3.16634 3.16675H15.833C16.7038 3.16675 17.4163 3.87925 17.4163 4.75008V14.2501C17.4163 15.1209 16.7038 15.8334 15.833 15.8334H3.16634C2.29551 15.8334 1.58301 15.1209 1.58301 14.2501V4.75008C1.58301 3.87925 2.29551 3.16675 3.16634 3.16675Z"  stroke-width="2" stroke-linecap="round" stroke-linejoin="round"/>
        <path d="M17.4163 4.75L9.49968 10.2917L1.58301 4.75"  stroke-width="2" stroke-linecap="round" stroke-linejoin="round"/> 
    </symbol>
    <symbol viewBox="0 0 17 21" id="marker">  
        <path d="M15.625 8.91675C15.625 14.4584 8.5 19.2084 8.5 19.2084C8.5 19.2084 1.375 14.4584 1.375 8.91675C1.375 7.02708 2.12567 5.21481 3.46186 3.87861C4.79806 2.54242 6.61033 1.79175 8.5 1.79175C10.3897 1.79175 12.2019 2.54242 13.5381 3.87861C14.8743 5.21481 15.625 7.02708 15.625 8.91675Z"  stroke-width="2" stroke-linecap="round" stroke-linejoin="round"/>
        <path d="M8.5 11.2917C9.81168 11.2917 10.875 10.2284 10.875 8.91675C10.875 7.60507 9.81168 6.54175 8.5 6.54175C7.18832 6.54175 6.125 7.60507 6.125 8.91675C6.125 10.2284 7.18832 11.2917 8.5 11.2917Z"   stroke-width="2" stroke-linecap="round" stroke-linejoin="round"/> 
    </symbol>
    <symbol viewBox="0 0 24 24" id="warning">  
        <path d="M12 22C17.5228 22 22 17.5228 22 12C22 6.47715 17.5228 2 12 2C6.47715 2 2 6.47715 2 12C2 17.5228 6.47715 22 12 22Z" />
        <path d="M12 16V12"  stroke-width="2" stroke-linecap="round" stroke-linejoin="round"/>
        <path d="M12 8H12.01"  stroke-width="2" stroke-linecap="round" stroke-linejoin="round"/> 
    </symbol>
    <symbol viewBox="0 0 10 10" id="x">  
        <path d="M1.1797 9.45725C1.01679 9.45725 0.853874 9.39507 0.729512 9.27071C0.480788 9.02199 0.480788 8.61905 0.729512 8.37033L8.37033 0.729512C8.61905 0.480788 9.02199 0.480788 9.27071 0.729512C9.51943 0.978237 9.51943 1.38117 9.27071 1.62989L1.62989 9.27071C1.50553 9.39507 1.34262 9.45725 1.1797 9.45725Z"  />
        <path d="M8.82052 9.45725C8.65761 9.45725 8.49469 9.39507 8.37033 9.27071L0.729512 1.62989C0.480788 1.38117 0.480788 0.978237 0.729512 0.729512C0.978237 0.480788 1.38117 0.480788 1.62989 0.729512L9.27071 8.37033C9.51943 8.61905 9.51943 9.02199 9.27071 9.27071C9.14635 9.39507 8.98343 9.45725 8.82052 9.45725Z"  />
     </symbol>
     <symbol viewBox="0 0 9 5" id="arrow-down">  
        <path d="M-3.79062e-08 0.867193L4.50102 5L9 0.864372L8.05969 3.523e-07L4.5 3.27126L0.940314 0.00282178L-3.79062e-08 0.867193Z"  />     
    </symbol>
    <symbol viewBox="0 0 8 5" id="down">   
        <path d="M0 0L4 5L8 0H0Z"  /> 
    </symbol>
    <symbol viewBox="0 0 16 16" id="arrow-right">  
        <path d="M1 8H15M15 8L8 1M15 8L8 15"  stroke-width="2" stroke-linecap="round" stroke-linejoin="round"/>     
    </symbol>
    <symbol viewBox="0 0 24 24" id="edit">  
        <path d="M11 4H4C3.46957 4 2.96086 4.21071 2.58579 4.58579C2.21071 4.96086 2 5.46957 2 6V20C2 20.5304 2.21071 21.0391 2.58579 21.4142C2.96086 21.7893 3.46957 22 4 22H18C18.5304 22 19.0391 21.7893 19.4142 21.4142C19.7893 21.0391 20 20.5304 20 20V13"  stroke-width="2" stroke-linecap="round" stroke-linejoin="round"/>
        <path d="M18.5 2.49998C18.8978 2.10216 19.4374 1.87866 20 1.87866C20.5626 1.87866 21.1022 2.10216 21.5 2.49998C21.8978 2.89781 22.1213 3.43737 22.1213 3.99998C22.1213 4.56259 21.8978 5.10216 21.5 5.49998L12 15L8 16L9 12L18.5 2.49998Z"  stroke-width="2" stroke-linecap="round" stroke-linejoin="round"/>
    </symbol>
    <symbol viewBox="0 0 25 25" id="minus">  
        <path d="M7.9 12.5H17.1M24 12.5C24 18.8513 18.8513 24 12.5 24C6.14873 24 1 18.8513 1 12.5C1 6.14873 6.14873 1 12.5 1C18.8513 1 24 6.14873 24 12.5Z"   stroke-width="2" stroke-linecap="round" stroke-linejoin="round"/>       
    </symbol> 
    <symbol viewBox="0 0 31 31" id="upload">   
        <path d="M30 20.3333V26.7778C30 27.6324 29.6605 28.4519 29.0562 29.0562C28.4519 29.6605 27.6324 30 26.7778 30H4.22222C3.36764 30 2.54805 29.6605 1.94377 29.0562C1.33948 28.4519 1 27.6324 1 26.7778V20.3333M7.44444 12.2778L15.5 20.3333M15.5 20.3333L23.5556 12.2778M15.5 20.3333V1"  stroke-width="2" stroke-linecap="round" stroke-linejoin="round"/>
    </symbol> 
    <symbol viewBox="0 0 19 18" id="analystics">    
        <path d="M7.65 17V5.73684H11.35V17H7.65ZM1 17V1H4.7V17H1ZM14.3 17V10.4737H18V17H14.3Z"  stroke-width="2"/> 
    </symbol> 
    <symbol viewBox="0 0 22 22" id="unknown">     
        <path fill-rule="evenodd" clip-rule="evenodd" d="M11 2C6.0294 2 2 6.0294 2 11C2 15.9706 6.0294 20 11 20C15.9706 20 20 15.9706 20 11C20 6.0294 15.9706 2 11 2ZM0 11C0 4.92487 4.92487 0 11 0C17.0751 0 22 4.92487 22 11C22 17.0751 17.0751 22 11 22C4.92487 22 0 17.0751 0 11ZM6.7734 7.9265C6.7734 5.6861 8.5897 3.8698 10.8302 3.8698H11.2913C13.4647 3.8698 15.2266 5.6317 15.2266 7.8051C15.2266 8.981 14.7007 10.0954 13.7929 10.8429L12.0303 12.2943V13.5462C12.0303 14.0985 11.5826 14.5462 11.0303 14.5462C10.4781 14.5462 10.0303 14.0985 10.0303 13.5462V11.8224C10.0303 11.5236 10.164 11.2404 10.3947 11.0505L12.5215 9.299C12.9679 8.9314 13.2266 8.3834 13.2266 7.8051C13.2266 6.7362 12.3601 5.8698 11.2913 5.8698H10.8302C9.6943 5.8698 8.7734 6.7906 8.7734 7.9265V8.0983C8.7734 8.6506 8.3257 9.0983 7.7734 9.0983C7.2212 9.0983 6.7734 8.6506 6.7734 8.0983V7.9265ZM11 18.1875C11.8284 18.1875 12.5 17.5159 12.5 16.6875C12.5 15.8591 11.8284 15.1875 11 15.1875C10.1716 15.1875 9.5 15.8591 9.5 16.6875C9.5 17.5159 10.1716 18.1875 11 18.1875Z" />
    </symbol> 
    <symbol viewBox="0 0 20 18" id="automation">    
        <path d="M19 1.88716V7.22049M19 7.22049H13.5989M19 7.22049L14.8322 3.34494C13.5905 2.11804 11.9786 1.32289 10.2394 1.07929C8.50022 0.835699 6.72798 1.15687 5.18974 1.9944C3.65149 2.83193 2.43059 4.14045 1.711 5.72278C0.991404 7.3051 0.812115 9.07551 1.20015 10.7672C1.58818 12.4589 2.5225 13.9802 3.86233 15.102C5.20216 16.2237 6.8749 16.885 8.62849 16.9863C10.3821 17.0876 12.1215 16.6234 13.5846 15.6636C15.0478 14.7038 16.1554 13.3004 16.7405 11.6649"  stroke-width="2" stroke-linecap="round" stroke-linejoin="round"/>
    </symbol> 
    <symbol viewBox="0 0 17 19" id="home">    
        <path d="M6 18V9.5H11V18M1 6.95L8.5 1L16 6.95V16.3C16 16.7509 15.8244 17.1833 15.5118 17.5021C15.1993 17.8209 14.7754 18 14.3333 18H2.66667C2.22464 18 1.80072 17.8209 1.48816 17.5021C1.17559 17.1833 1 16.7509 1 16.3V6.95Z" stroke-width="2" stroke-linecap="round" stroke-linejoin="round"/>
    </symbol> 
    <symbol viewBox="0 0 18 20" id="integrations">    
        <path d="M17 19V17C17 15.9391 16.5786 14.9217 15.8284 14.1716C15.0783 13.4214 14.0609 13 13 13H5C3.93913 13 2.92172 13.4214 2.17157 14.1716C1.42143 14.9217 1 15.9391 1 17V19M13 5C13 7.20914 11.2091 9 9 9C6.79086 9 5 7.20914 5 5C5 2.79086 6.79086 1 9 1C11.2091 1 13 2.79086 13 5Z"   stroke-width="2" stroke-linecap="round" stroke-linejoin="round"/>
    </symbol> 
    <symbol viewBox="0 0 17 19" id="orders">    
        <path d="M1 4.4L3.5 1H13.5L16 4.4M1 4.4V16.3C1 16.7509 1.17559 17.1833 1.48816 17.5021C1.80072 17.8209 2.22464 18 2.66667 18H14.3333C14.7754 18 15.1993 17.8209 15.5118 17.5021C15.8244 17.1833 16 16.7509 16 16.3V4.4M1 4.4H16M11.8333 7.8C11.8333 8.70174 11.4821 9.56654 10.857 10.2042C10.2319 10.8418 9.38405 11.2 8.5 11.2C7.61594 11.2 6.7681 10.8418 6.14298 10.2042C5.51786 9.56654 5.16667 8.70174 5.16667 7.8"  stroke-width="2" stroke-linecap="round" stroke-linejoin="round"/>
    </symbol> 
    <symbol viewBox="0 0 18 20" id="returns">    
        <path d="M1.24 5.44483L9 9.97219L16.76 5.44483M9 19V9.96322M17 13.5492V6.3772C16.9997 6.06277 16.9174 5.75395 16.7614 5.48173C16.6054 5.20951 16.3811 4.98346 16.1111 4.82624L9.88889 1.24022C9.61863 1.08285 9.31207 1 9 1C8.68793 1 8.38137 1.08285 8.11111 1.24022L1.88889 4.82624C1.6189 4.98346 1.39465 5.20951 1.23863 5.48173C1.08262 5.75395 1.00032 6.06277 1 6.3772V13.5492C1.00032 13.8637 1.08262 14.1725 1.23863 14.4447C1.39465 14.7169 1.6189 14.943 1.88889 15.1002L8.11111 18.6862C8.38137 18.8436 8.68793 18.9264 9 18.9264C9.31207 18.9264 9.61863 18.8436 9.88889 18.6862L16.1111 15.1002C16.3811 14.943 16.6054 14.7169 16.7614 14.4447C16.9174 14.1725 16.9997 13.8637 17 13.5492Z" stroke-width="2" stroke-linecap="round" stroke-linejoin="round"/>
    </symbol> 
    <symbol viewBox="0 0 21 21" id="settings">    
        <path d="M10.5 13.0909C11.9309 13.0909 13.0909 11.9309 13.0909 10.5C13.0909 9.06908 11.9309 7.90909 10.5 7.90909C9.06908 7.90909 7.90909 9.06908 7.90909 10.5C7.90909 11.9309 9.06908 13.0909 10.5 13.0909Z"  stroke-width="2" stroke-linecap="round" stroke-linejoin="round"/>
        <path d="M16.8909 13.0909C16.7759 13.3514 16.7417 13.6403 16.7925 13.9205C16.8432 14.2007 16.9768 14.4592 17.1759 14.6627L17.2277 14.7145C17.3883 14.875 17.5157 15.0655 17.6026 15.2751C17.6896 15.4848 17.7343 15.7096 17.7343 15.9366C17.7343 16.1636 17.6896 16.3883 17.6026 16.598C17.5157 16.8077 17.3883 16.9982 17.2277 17.1586C17.0673 17.3192 16.8768 17.4466 16.6671 17.5336C16.4574 17.6205 16.2327 17.6652 16.0057 17.6652C15.7787 17.6652 15.5539 17.6205 15.3442 17.5336C15.1346 17.4466 14.9441 17.3192 14.7836 17.1586L14.7318 17.1068C14.5283 16.9077 14.2698 16.7742 13.9896 16.7234C13.7094 16.6726 13.4205 16.7069 13.16 16.8218C12.9046 16.9313 12.6867 17.1131 12.5333 17.3448C12.3798 17.5765 12.2975 17.848 12.2964 18.1259V18.2727C12.2964 18.7308 12.1144 19.1702 11.7905 19.4941C11.4665 19.818 11.0272 20 10.5691 20C10.111 20 9.67165 19.818 9.34773 19.4941C9.0238 19.1702 8.84182 18.7308 8.84182 18.2727V18.195C8.83513 17.9091 8.7426 17.6319 8.57626 17.3993C8.40992 17.1668 8.17745 16.9896 7.90909 16.8909C7.6486 16.7759 7.35965 16.7417 7.07949 16.7925C6.79933 16.8432 6.54081 16.9768 6.33727 17.1759L6.28545 17.2277C6.12504 17.3883 5.93454 17.5157 5.72485 17.6026C5.51516 17.6896 5.2904 17.7343 5.06341 17.7343C4.83642 17.7343 4.61165 17.6896 4.40197 17.6026C4.19228 17.5157 4.00178 17.3883 3.84136 17.2277C3.68077 17.0673 3.55337 16.8768 3.46644 16.6671C3.37952 16.4574 3.33478 16.2327 3.33478 16.0057C3.33478 15.7787 3.37952 15.5539 3.46644 15.3442C3.55337 15.1346 3.68077 14.9441 3.84136 14.7836L3.89318 14.7318C4.09228 14.5283 4.22584 14.2698 4.27664 13.9896C4.32744 13.7094 4.29314 13.4205 4.17818 13.16C4.0687 12.9046 3.88693 12.6867 3.65522 12.5333C3.42351 12.3798 3.152 12.2975 2.87409 12.2964H2.72727C2.26917 12.2964 1.82983 12.1144 1.50591 11.7905C1.18198 11.4665 1 11.0272 1 10.5691C1 10.111 1.18198 9.67165 1.50591 9.34773C1.82983 9.0238 2.26917 8.84182 2.72727 8.84182H2.805C3.09086 8.83513 3.3681 8.7426 3.60067 8.57626C3.83324 8.40992 4.01039 8.17745 4.10909 7.90909C4.22405 7.6486 4.25835 7.35965 4.20755 7.07949C4.15675 6.79933 4.02319 6.54081 3.82409 6.33727L3.77227 6.28545C3.61168 6.12504 3.48428 5.93454 3.39735 5.72485C3.31043 5.51516 3.26569 5.2904 3.26569 5.06341C3.26569 4.83642 3.31043 4.61165 3.39735 4.40197C3.48428 4.19228 3.61168 4.00178 3.77227 3.84136C3.93269 3.68077 4.12319 3.55337 4.33288 3.46644C4.54256 3.37952 4.76733 3.33478 4.99432 3.33478C5.22131 3.33478 5.44607 3.37952 5.65576 3.46644C5.86545 3.55337 6.05595 3.68077 6.21636 3.84136L6.26818 3.89318C6.47172 4.09228 6.73024 4.22584 7.0104 4.27664C7.29056 4.32744 7.57951 4.29314 7.84 4.17818H7.90909C8.16453 4.0687 8.38238 3.88693 8.53583 3.65522C8.68927 3.42351 8.77162 3.152 8.77273 2.87409V2.72727C8.77273 2.26917 8.95471 1.82983 9.27863 1.50591C9.60256 1.18198 10.0419 1 10.5 1C10.9581 1 11.3974 1.18198 11.7214 1.50591C12.0453 1.82983 12.2273 2.26917 12.2273 2.72727V2.805C12.2284 3.08291 12.3107 3.35442 12.4642 3.58613C12.6176 3.81783 12.8355 3.99961 13.0909 4.10909C13.3514 4.22405 13.6403 4.25835 13.9205 4.20755C14.2007 4.15675 14.4592 4.02319 14.6627 3.82409L14.7145 3.77227C14.875 3.61168 15.0655 3.48428 15.2751 3.39735C15.4848 3.31043 15.7096 3.26569 15.9366 3.26569C16.1636 3.26569 16.3883 3.31043 16.598 3.39735C16.8077 3.48428 16.9982 3.61168 17.1586 3.77227C17.3192 3.93269 17.4466 4.12319 17.5336 4.33288C17.6205 4.54256 17.6652 4.76733 17.6652 4.99432C17.6652 5.22131 17.6205 5.44607 17.5336 5.65576C17.4466 5.86545 17.3192 6.05595 17.1586 6.21636L17.1068 6.26818C16.9077 6.47172 16.7742 6.73024 16.7234 7.0104C16.6726 7.29056 16.7069 7.57951 16.8218 7.84V7.90909C16.9313 8.16453 17.1131 8.38238 17.3448 8.53583C17.5765 8.68927 17.848 8.77162 18.1259 8.77273H18.2727C18.7308 8.77273 19.1702 8.95471 19.4941 9.27863C19.818 9.60256 20 10.0419 20 10.5C20 10.9581 19.818 11.3974 19.4941 11.7214C19.1702 12.0453 18.7308 12.2273 18.2727 12.2273H18.195C17.9171 12.2284 17.6456 12.3107 17.4139 12.4642C17.1822 12.6176 17.0004 12.8355 16.8909 13.0909Z"  stroke-width="2" stroke-linecap="round" stroke-linejoin="round"/>
    </symbol> 
    <symbol viewBox="0 0 17 19" id="store">    
        <path d="M16 3.55C16 4.95833 12.6421 6.1 8.5 6.1C4.35786 6.1 1 4.95833 1 3.55M16 3.55C16 2.14167 12.6421 1 8.5 1C4.35786 1 1 2.14167 1 3.55M16 3.55V15.45C16 16.861 12.6667 18 8.5 18C4.33333 18 1 16.861 1 15.45V3.55M16 9.5C16 10.911 12.6667 12.05 8.5 12.05C4.33333 12.05 1 10.911 1 9.5"  stroke-width="2" stroke-linecap="round" stroke-linejoin="round"/>
    </symbol> 
    <symbol viewBox="0 0 15 14" id="open-btn">      
        <path d="M0 6.99964C-2.13016e-08 6.51635 0.395043 6.1246 0.882353 6.1246L9.57256 6.12459L6.33257 2.31342C6.01846 1.94389 6.06585 1.39183 6.43842 1.0804C6.81099 0.768881 7.36765 0.815871 7.68176 1.18532L12.1451 6.43559C12.4222 6.76145 12.4222 7.23783 12.1451 7.56369L7.68176 12.8139C7.36765 13.1834 6.81099 13.2304 6.43842 12.9189C6.06585 12.6074 6.01846 12.0554 6.33257 11.6859L9.57256 7.87468H0.882353C0.395043 7.87468 2.13016e-08 7.48293 0 6.99964Z"  />
        <path d="M14.1176 14C13.6303 14 13.2353 13.6082 13.2353 13.125V0.875045C13.2353 0.391758 13.6303 2.11252e-08 14.1176 0C14.605 -2.11252e-08 15 0.391758 15 0.875045V13.125C15 13.6082 14.605 14 14.1176 14Z" />
    </symbol> 
    <symbol viewBox="0 0 19 19" id="credit-card">       
        <path d="M5.54134 11.8749H7.91634C8.1263 11.8749 8.32767 11.7915 8.47613 11.643C8.6246 11.4946 8.70801 11.2932 8.70801 11.0833C8.70801 10.8733 8.6246 10.6719 8.47613 10.5235C8.32767 10.375 8.1263 10.2916 7.91634 10.2916H5.54134C5.33138 10.2916 5.13002 10.375 4.98155 10.5235C4.83308 10.6719 4.74967 10.8733 4.74967 11.0833C4.74967 11.2932 4.83308 11.4946 4.98155 11.643C5.13002 11.7915 5.33138 11.8749 5.54134 11.8749ZM15.0413 3.95825H3.95801C3.32812 3.95825 2.72403 4.20847 2.27863 4.65387C1.83323 5.09927 1.58301 5.70336 1.58301 6.33325V13.4583C1.58301 14.0881 1.83323 14.6922 2.27863 15.1376C2.72403 15.583 3.32812 15.8333 3.95801 15.8333H15.0413C15.6712 15.8333 16.2753 15.583 16.7207 15.1376C17.1661 14.6922 17.4163 14.0881 17.4163 13.4583V6.33325C17.4163 5.70336 17.1661 5.09927 16.7207 4.65387C16.2753 4.20847 15.6712 3.95825 15.0413 3.95825ZM15.833 13.4583C15.833 13.6682 15.7496 13.8696 15.6011 14.018C15.4527 14.1665 15.2513 14.2499 15.0413 14.2499H3.95801C3.74804 14.2499 3.54668 14.1665 3.39822 14.018C3.24975 13.8696 3.16634 13.6682 3.16634 13.4583V8.70825H15.833V13.4583ZM15.833 7.12492H3.16634V6.33325C3.16634 6.12329 3.24975 5.92193 3.39822 5.77346C3.54668 5.62499 3.74804 5.54159 3.95801 5.54159H15.0413C15.2513 5.54159 15.4527 5.62499 15.6011 5.77346C15.7496 5.92193 15.833 6.12329 15.833 6.33325V7.12492Z" />  
    </symbol> 
    <symbol viewBox="0 0 19 19" id="exit">        
        <path d="M12.8966 6.89534L14.7175 8.70825H7.12537C6.91541 8.70825 6.71404 8.79166 6.56558 8.94013C6.41711 9.08859 6.3337 9.28996 6.3337 9.49992C6.3337 9.70988 6.41711 9.91125 6.56558 10.0597C6.71404 10.2082 6.91541 10.2916 7.12537 10.2916H14.7175L12.8966 12.1045C12.8224 12.1781 12.7635 12.2657 12.7233 12.3621C12.6831 12.4586 12.6624 12.5621 12.6624 12.6666C12.6624 12.7711 12.6831 12.8746 12.7233 12.971C12.7635 13.0675 12.8224 13.1551 12.8966 13.2287C12.9702 13.3029 13.0578 13.3618 13.1542 13.402C13.2507 13.4422 13.3542 13.4628 13.4587 13.4628C13.5632 13.4628 13.6667 13.4422 13.7632 13.402C13.8596 13.3618 13.9472 13.3029 14.0208 13.2287L17.1875 10.062C17.2595 9.98671 17.316 9.89793 17.3537 9.80075C17.4329 9.60801 17.4329 9.39183 17.3537 9.19909C17.316 9.10191 17.2595 9.01313 17.1875 8.93784L14.0208 5.77117C13.947 5.69736 13.8593 5.6388 13.7629 5.59886C13.6665 5.55891 13.5631 5.53835 13.4587 5.53835C13.3543 5.53835 13.2509 5.55891 13.1545 5.59886C13.0581 5.6388 12.9704 5.69736 12.8966 5.77117C12.8228 5.84498 12.7643 5.93261 12.7243 6.02906C12.6844 6.1255 12.6638 6.22886 12.6638 6.33325C12.6638 6.43764 12.6844 6.54101 12.7243 6.63745C12.7643 6.73389 12.8228 6.82152 12.8966 6.89534ZM7.91704 16.6249C7.91704 16.415 7.83363 16.2136 7.68516 16.0651C7.53669 15.9167 7.33533 15.8333 7.12537 15.8333H3.9587C3.74874 15.8333 3.54737 15.7498 3.39891 15.6014C3.25044 15.4529 3.16704 15.2515 3.16704 15.0416V3.95825C3.16704 3.74829 3.25044 3.54693 3.39891 3.39846C3.54737 3.24999 3.74874 3.16659 3.9587 3.16659H7.12537C7.33533 3.16659 7.53669 3.08318 7.68516 2.93471C7.83363 2.78625 7.91704 2.58488 7.91704 2.37492C7.91704 2.16496 7.83363 1.96359 7.68516 1.81513C7.53669 1.66666 7.33533 1.58325 7.12537 1.58325L3.9587 1.58325C3.32881 1.58325 2.72472 1.83347 2.27932 2.27887C1.83392 2.72427 1.5837 3.32836 1.5837 3.95825V15.0416C1.5837 15.6715 1.83392 16.2756 2.27932 16.721C2.72472 17.1664 3.32881 17.4166 3.9587 17.4166H7.12537C7.33533 17.4166 7.53669 17.3332 7.68516 17.1847C7.83363 17.0362 7.91704 16.8349 7.91704 16.6249Z" />
    </symbol>
    <symbol viewBox="0 0 17 13" id="choose"> 
        <path d="M15.0655 0.346129L5.66662 10.1471L1.93449 6.25529C1.49248 5.79378 0.773938 5.79378 0.331931 6.25529C-0.110644 6.71679 -0.110644 7.46489 0.331931 7.9264L4.86534 12.6537C5.08634 12.8848 5.37648 13 5.66662 13C5.95676 13 6.24689 12.8848 6.4679 12.6537L16.6681 2.01724C17.1106 1.55573 17.1106 0.807634 16.6681 0.346129C16.2255 -0.115376 15.5081 -0.115376 15.0655 0.346129Z"  />
    </symbol>
    <symbol viewBox="0 0 24 24" id="edit-2">  
        <path d="M12 20H21"  stroke-width="2" stroke-linecap="round" stroke-linejoin="round"/>
        <path d="M16.5 3.50001C16.8978 3.10219 17.4374 2.87869 18 2.87869C18.2786 2.87869 18.5544 2.93356 18.8118 3.04017C19.0692 3.14677 19.303 3.30303 19.5 3.50001C19.697 3.697 19.8532 3.93085 19.9598 4.18822C20.0665 4.44559 20.1213 4.72144 20.1213 5.00001C20.1213 5.27859 20.0665 5.55444 19.9598 5.81181C19.8532 6.06918 19.697 6.30303 19.5 6.50001L7 19L3 20L4 16L16.5 3.50001Z"  stroke-width="2" stroke-linecap="round" stroke-linejoin="round"/>
    </symbol>
    <symbol viewBox="0 0 17 18" id="delete">  
        <path d="M1 4.2H2.66667M2.66667 4.2H16M2.66667 4.2L2.66667 15.4C2.66667 15.8243 2.84226 16.2313 3.15482 16.5314C3.46738 16.8314 3.89131 17 4.33333 17H12.6667C13.1087 17 13.5326 16.8314 13.8452 16.5314C14.1577 16.2313 14.3333 15.8243 14.3333 15.4V4.2L2.66667 4.2ZM5.16667 4.2V2.6C5.16667 2.17565 5.34226 1.76869 5.65482 1.46863C5.96738 1.16857 6.39131 1 6.83333 1H10.1667C10.6087 1 11.0326 1.16857 11.3452 1.46863C11.6577 1.76869 11.8333 2.17565 11.8333 2.6V4.2M6.83333 8.2V13M10.1667 8.2V13" stroke-width="2" stroke-linecap="round" stroke-linejoin="round"/>
    </symbol>
    <symbol viewBox="0 0 20 20" id="add">  
        <path d="M10 6.4V13.6M6.4 10H13.6M19 10C19 14.9706 14.9706 19 10 19C5.02944 19 1 14.9706 1 10C1 5.02944 5.02944 1 10 1C14.9706 1 19 5.02944 19 10Z"  stroke-width="2" stroke-linecap="round" stroke-linejoin="round"/>      
    </symbol>
    <symbol viewBox="0 0 12 12" id="plus-2">         
        <path d="M6 1V11M1 6H11"  stroke-width="2" stroke-linecap="round" stroke-linejoin="round"/> 
    </symbol> 
    <symbol viewBox="0 0 6 10" id="next">    
        <path d="M1.04063 0L6 5.00114L1.03725 10L0 8.95521L3.92551 5L0.00338608 1.04479L1.04063 0Z"/> 
    </symbol>
    <symbol viewBox="0 0 5 9" id="prev">    
        <path d="M4.13281 0L0 4.50102L4.13563 9L5 8.05969L1.72874 4.5L4.99718 0.940314L4.13281 0Z" /> 
    </symbol>
</svg>